<svg id="epaXmHsEJLf1" xmlns="http://www.w3.org/2000/svg" xmlns:xlink="http://www.w3.org/1999/xlink" viewBox="0 0 1920 1080" shape-rendering="geometricPrecision" text-rendering="geometricPrecision"><ellipse rx="39.73462" ry="39.73462" transform="translate(159.445113 172.617612)" fill="#f0b86e" stroke-width="0"/><ellipse rx="19.86731" ry="19.86731" transform="translate(303.727381 152.750302)" fill="#f0b86e" stroke-width="0"/><ellipse rx="30.940893" ry="30.940893" transform="translate(455.500602 243.293125)" fill="#f0b86e" stroke-width="0"/><ellipse rx="27.846804" ry="27.846804" transform="translate(593.106151 215.446321)" fill="#f0b86e" stroke-width="0"/><ellipse rx="41.037395" ry="41.037395" transform="translate(707.913148 158.287093)" fill="#f0b86e" stroke-width="0"/><ellipse rx="23.857057" ry="23.857057" transform="translate(831.432448 267.150182)" fill="#f0b86e" stroke-width="0"/><ellipse rx="21.984319" ry="21.984319" transform="translate(952.020506 221.308807)" fill="#f0b86e" stroke-width="0"/><ellipse rx="17.424608" ry="17.424608" transform="translate(1030.838358 170.17491)" fill="#f0b86e" stroke-width="0"/><ellipse rx="9.933655" ry="9.933655" transform="translate(1091.091676 142.816647)" fill="#f0b86e" stroke-width="0"/><ellipse rx="21.943606" ry="21.943606" transform="translate(853.376055 139.193304)" fill="#f0b86e" stroke-width="0"/><ellipse rx="15.470446" ry="15.470446" transform="translate(745.205066 227.822678)" fill="#f0b86e" stroke-width="0"/><ellipse rx="83.703256" ry="83.703256" transform="translate(791.616405 471.930036)" fill="#f0b86e" stroke-width="0"/><ellipse rx="29.963812" ry="29.963812" transform="translate(1236.188178 345.235223)" fill="#f0b86e" stroke-width="0"/><ellipse rx="19.86731" ry="19.86731" transform="translate(1468.407719 192.484922)" fill="#f0b86e" stroke-width="0"/><ellipse rx="5.862485" ry="5.862485" transform="translate(1649.819058 321.133896)" fill="#f0b86e" stroke-width="0"/></svg>
